<svg width="20" height="20" viewBox="0 0 20 20" fill="none" xmlns="http://www.w3.org/2000/svg">
<rect width="20" height="20" rx="10" fill="#FFD93D"/>
<path d="M13.9601 6.0401H12.6401V5.6001H7.3601V6.0401H6.0401C5.7761 6.0401 5.6001 6.2161 5.6001 6.4801V7.5361C5.6001 8.5481 6.3481 9.3841 7.3601 9.5161V9.5601C7.3601 10.8361 8.2401 11.8921 9.4281 12.1561L9.1201 13.0801H8.1081C7.9321 13.0801 7.7561 13.2121 7.7121 13.3881L7.3601 14.4001H12.6401L12.2881 13.3881C12.2441 13.2121 12.0681 13.0801 11.8921 13.0801H10.8801L10.5721 12.1561C11.7601 11.8921 12.6401 10.8361 12.6401 9.5601V9.5161C13.6521 9.3841 14.4001 8.5481 14.4001 7.5361V6.4801C14.4001 6.2161 14.2241 6.0401 13.9601 6.0401ZM7.3601 8.6361C6.8761 8.5041 6.4801 8.0641 6.4801 7.5361V6.9201H7.3601V8.6361ZM13.5201 7.5361C13.5201 8.0641 13.1241 8.5481 12.6401 8.6361V6.9201H13.5201V7.5361Z" fill="white"/>
</svg>
